<svg width="14" height="15" viewBox="0 0 14 15" fill="none" xmlns="http://www.w3.org/2000/svg">
<g clip-path="url(#clip0_342_4232)">
<path d="M6.125 3V3.875H3.5V3H6.125ZM3.5 5.625V4.75H6.125V5.625H3.5ZM3.5 7.375V6.5H5.25V7.375H3.5ZM2.625 3V3.875H1.75V3H2.625ZM2.625 4.75V5.625H1.75V4.75H2.625ZM1.75 7.375V6.5H2.625V7.375H1.75ZM0.875 0.375V12.625H5.25V13.5H0V-0.5H7.62207L11.375 3.25293V4.75H10.5V3.875H7V0.375H0.875ZM7.875 0.99707V3H9.87793L7.875 0.99707ZM12.25 6.5H14V13.5H6.125V6.5H7.875V5.625H8.75V6.5H11.375V5.625H12.25V6.5ZM13.125 12.625V9.125H7V12.625H13.125ZM13.125 8.25V7.375H7V8.25H13.125Z" fill="black"/>
</g>
<defs>
<clipPath id="clip0_342_4232">
<rect width="14" height="14" fill="white" transform="translate(0 0.5)"/>
</clipPath>
</defs>
</svg>
