<svg width="12" height="10" viewBox="0 0 12 10" fill="none" xmlns="http://www.w3.org/2000/svg">
<path d="M11.25 9.5H0.75V8.5H1.275V1C1.275 0.867392 1.33031 0.740215 1.42877 0.646447C1.52723 0.552678 1.66076 0.5 1.8 0.5H9.15C9.28924 0.5 9.42277 0.552678 9.52123 0.646447C9.61969 0.740215 9.675 0.867392 9.675 1V3.5H10.725V8.5H11.25V9.5ZM8.625 8.5H9.675V4.5H6.525V8.5H7.575V5.5H8.625V8.5ZM8.625 3.5V1.5H2.325V8.5H5.475V3.5H8.625ZM3.375 4.5H4.425V5.5H3.375V4.5ZM3.375 6.5H4.425V7.5H3.375V6.5ZM3.375 2.5H4.425V3.5H3.375V2.5Z" fill="#F5F1FF"/>
</svg>
